<!-- src/assets/illustrations/popcorn-kernel.svg -->
<svg xmlns="http://www.w3.org/2000/svg" width="28" height="28" viewBox="0 0 28 28">
  <g filter="url(#s)">
    <path d="M13.9 4c2.6 0 4.2 1.1 5 3 1.6-.2 2.9.5 3.7 1.7.9 1.4.9 3.2 0 4.6-.7 1-1.8 1.7-3.1 1.9-.6 2.2-2.5 3.8-5.6 3.8S8.8 17.4 8.2 15.2c-1.3-.2-2.4-.9-3.1-1.9-.9-1.4-.9-3.2 0-4.6.8-1.2 2.1-1.9 3.7-1.7.8-1.9 2.4-3 5.1-3Z" fill="#ffe9b8"></path>
    <path d="M10 11c.6-1.4 2-2.3 3.9-2.3S17 9.6 17.6 11" fill="none" stroke="#f7d77e" stroke-linecap="round"></path>
  </g>
  <defs>
    <filter id="s" x="-10" y="-10" width="48" height="48">
      <feDropShadow dx="0" dy="2" stdDeviation="2" flood-color="#000" flood-opacity=".25"></feDropShadow>
    </filter>
  </defs>
</svg>
